<svg width="150" height="44" viewBox="0 0 150 44" fill="none" xmlns="http://www.w3.org/2000/svg">
<path d="M36.1828 10.8969C42.3899 8.80224 46.4919 9.69226 49.618 13.7558C52.5725 17.5945 52.708 23.1594 49.9523 27.088C46.8713 31.4752 43.0585 32.3922 36.1377 30.3874C36.1196 31.7899 35.9931 33.1743 36.3635 34.5408C36.9328 36.6535 38.6584 37.9391 40.7004 37.7683C43.176 37.5615 44.3596 36.4737 44.5583 33.9924C44.6306 33.0844 45.0011 32.9226 45.7871 32.9406C47.3231 32.9765 48.8681 33.0215 50.395 32.9316C51.6328 32.8597 51.7503 33.4081 51.6147 34.415C50.8829 39.782 47.5761 42.8297 41.9111 43.2522C38.5681 43.5039 35.4149 42.9555 32.7495 40.7709C30.1564 38.6493 29.1626 35.7815 29.1445 32.554C29.1084 25.326 29.1536 18.089 29.1174 10.861C29.1084 9.89903 29.3704 9.54841 30.3733 9.61135C31.7737 9.69226 33.1832 9.68327 34.5927 9.62034C35.5504 9.5664 36.3184 9.63832 36.1828 10.8969ZM46.4105 20.6062C46.3834 17.6125 44.0614 15.0953 41.3599 15.1223C38.6404 15.1492 36.3906 17.6844 36.4087 20.6961C36.4177 23.6808 38.7578 26.234 41.4503 26.198C44.1427 26.1621 46.4376 23.5729 46.4105 20.6062Z" fill="black" fill-opacity="0.57"/>
<path d="M25.0692 27.3847C24.6535 32.7068 21.6178 35.9522 16.3593 37.1299C13.4772 37.7772 10.604 37.6963 7.77603 36.8512C3.08683 35.4398 0.141394 31.6999 0.0510435 26.7824C-0.0483422 21.4692 0.0329741 16.1561 0.00586889 10.843C0.00586889 10.1058 0.22271 9.85405 0.972621 9.88102C2.55376 9.92597 4.1349 9.94395 5.71603 9.87203C6.63761 9.82708 6.90866 10.1058 6.89963 11.0317C6.85445 15.8684 6.88156 20.7051 6.88156 25.5327C6.88156 25.9283 6.87252 26.3149 6.89059 26.7104C7.05322 30.0547 8.97769 31.9696 12.2755 32.0685C15.8986 32.1764 17.8953 30.5312 18.3019 27.124C18.582 24.7326 18.4103 22.3413 18.4284 19.9499C18.4555 15.8594 18.4645 11.7599 18.4193 7.66946C18.4103 6.77944 18.6271 6.42883 19.5849 6.48277C21.0756 6.55469 22.5755 6.55469 24.0663 6.48277C25.0059 6.43782 25.2679 6.76146 25.2499 7.66946C25.2047 10.807 25.2318 13.9445 25.2318 17.0821" fill="black" fill-opacity="0.57"/>
<path d="M65.1387 9.80914C67.3613 9.80914 69.3761 9.85409 71.3909 9.79116C72.2944 9.76419 72.3487 10.3306 72.4932 10.9149C73.5413 15.2212 74.5894 19.5364 75.6465 23.8426C75.7007 24.0764 75.6284 24.391 76.0982 24.5169C76.568 23.1864 77.0379 21.8558 77.4986 20.5253C78.61 17.2709 79.7213 14.0255 80.8236 10.7711C80.9952 10.2766 81.0856 9.79116 81.8264 9.80015C83.6244 9.80914 85.4224 9.7552 87.2204 9.68328C88.0606 9.65631 88.1781 9.92601 87.889 10.6812C84.3924 19.914 80.9681 29.1828 77.4083 38.3976C75.7007 42.8207 72.168 44.5468 67.4968 43.5669C66.9367 43.45 66.6566 43.2612 66.6566 42.6409C66.6566 41.5081 66.6024 40.3844 66.5481 39.2516C66.512 38.5594 66.8282 38.3976 67.4878 38.3616C71.8788 38.1548 73.4961 35.7815 72.1499 31.6011C69.9544 24.7686 67.7498 17.9452 65.5452 11.1127C65.4278 10.7531 65.3194 10.3845 65.1387 9.80914Z" fill="black" fill-opacity="0.57"/>
<path d="M145.941 16.6506C145.471 16.6596 144.929 16.6686 144.622 16.6596C143.619 16.6326 142.887 16.7045 142.607 15.392C142.336 14.0794 141.053 13.6928 139.815 13.6209C138.605 13.549 137.421 13.7108 136.626 14.7716C135.858 15.7875 136.183 17.0911 137.376 17.7564C138.704 18.4935 140.204 18.6554 141.65 18.997C143.402 19.4105 145.137 19.887 146.637 20.9388C149.799 23.1414 150.143 27.7533 147.342 30.3874C143.384 34.1183 135.018 33.8396 131.332 29.857C130.32 28.7692 129.723 27.4926 129.497 26.0272C129.416 25.4968 129.534 25.2181 130.157 25.2361C131.648 25.2631 133.148 25.2541 134.638 25.2361C135.162 25.2271 135.361 25.4339 135.524 25.9463C136.31 28.4186 140.204 29.5064 142.291 27.8702C143.484 26.9352 143.448 25.3979 142.183 24.5798C141.216 23.9505 140.096 23.6898 138.975 23.4471C137.177 23.0515 135.388 22.611 133.753 21.73C129.308 19.3386 128.937 14.0075 133.012 11.0138C136.463 8.4786 143.014 8.54153 146.429 11.1576C147.875 12.2634 148.796 13.6838 149.104 15.4998C149.239 16.309 148.959 16.6596 148.182 16.6596C147.432 16.6686 146.682 16.6506 145.941 16.6506Z" fill="black" fill-opacity="0.57"/>
<path d="M61.3545 34.4419C60.46 34.5768 60.5052 33.9744 60.3787 33.5609C58.0928 25.8115 55.816 18.053 53.5301 10.3036C52.8073 7.8403 52.1658 5.35904 51.3346 2.93172C50.9551 1.81695 51.3075 1.47533 52.3104 1.24159C53.5482 0.953907 54.7769 0.630265 55.9696 0.180761C57.0357 -0.214802 57.4423 0.00994956 57.7675 1.1427C60.0805 9.2068 62.4658 17.2439 64.833 25.29C65.4835 27.5016 66.1159 29.7132 66.7665 31.9247C66.8839 32.3203 67.2182 32.7518 66.5045 32.9496C64.7336 33.444 62.9717 33.9655 61.3545 34.4419Z" fill="black" fill-opacity="0.57"/>
<path d="M98.7152 17.4327C98.8056 17.4327 98.8869 17.4327 98.9772 17.4327C101.209 17.4327 101.209 17.4327 101.733 19.5634C102.844 24.1123 107.317 27.16 112.403 26.8363C117.093 26.5397 121.032 22.9167 121.52 18.3767C121.592 17.6844 121.764 17.3788 122.523 17.4237C123.706 17.4867 124.899 17.5046 126.073 17.4147C127.022 17.3428 127.176 17.7743 127.103 18.5565C126.588 23.9685 123.833 27.9511 119.071 30.5043C109.693 35.5387 98.1641 30.1986 96.095 19.932C95.6071 17.4327 95.6071 17.4327 98.7152 17.4327Z" fill="black" fill-opacity="0.57"/>
<path d="M110.17 12.596C110.17 15.7875 110.17 15.7426 106.989 15.8055C105.851 15.8325 105.535 15.5718 105.517 14.3761C105.508 12.9107 105.562 11.5082 105.535 10.0788C105.526 9.46749 105.752 9.23375 106.366 9.24274C106.492 9.24274 106.628 9.24274 106.763 9.24274C110.17 9.19779 110.17 9.19779 110.17 12.596Z" fill="black" fill-opacity="0.57"/>
<path d="M117.029 13.3333C117.029 15.6527 117.029 15.6527 114.68 15.6527C112.412 15.6527 112.412 15.6527 112.412 13.3692C112.412 10.852 112.412 10.852 114.969 10.852C117.029 10.852 117.029 10.852 117.029 13.3333Z" fill="black" fill-opacity="0.57"/>
</svg>
